<?xml version="1.0" standalone="no"?>
<!DOCTYPE svg PUBLIC "-//W3C//DTD SVG 20010904//EN"
 "http://www.w3.org/TR/2001/REC-SVG-20010904/DTD/svg10.dtd">
<svg version="1.0" xmlns="http://www.w3.org/2000/svg"
 width="442.000000pt" height="442.000000pt" viewBox="0 0 442.000000 442.000000"
 preserveAspectRatio="xMidYMid meet">
<metadata>
Created by potrace 1.14, written by Peter Selinger 2001-2017
</metadata>
<g transform="translate(0.000000,442.000000) scale(0.100000,-0.100000)"
fill="#000000" stroke="none">
<path d="M2010 4403 c-127 -13 -330 -47 -415 -69 -149 -38 -152 -39 -255 -77
-381 -140 -689 -368 -907 -672 -64 -88 -147 -233 -200 -350 -39 -85 -117 -305
-127 -357 -2 -13 -11 -52 -20 -88 -46 -187 -61 -343 -60 -610 0 -216 18 -385
59 -558 3 -12 7 -31 9 -41 31 -140 106 -343 181 -495 230 -459 604 -777 1118
-951 131 -44 291 -82 422 -101 22 -3 51 -7 65 -10 135 -23 557 -23 675 0 11 2
43 7 70 10 84 11 305 64 400 95 612 202 1014 588 1238 1191 31 83 78 249 92
321 3 13 7 35 10 49 43 203 60 488 42 730 -7 95 -10 119 -27 220 -5 30 -12 69
-15 87 -12 72 -67 269 -100 360 -217 591 -621 985 -1220 1190 -140 48 -331 92
-470 108 -27 4 -61 9 -75 12 -31 6 -441 12 -490 6z"/>
</g>
</svg>
